<?xml version="1.0" standalone="no"?>
<!DOCTYPE svg PUBLIC "-//W3C//DTD SVG 20010904//EN"
 "http://www.w3.org/TR/2001/REC-SVG-20010904/DTD/svg10.dtd">
<svg version="1.0" xmlns="http://www.w3.org/2000/svg"
 width="300.000000pt" height="91.000000pt" viewBox="0 0 300.000000 91.000000"
 preserveAspectRatio="xMidYMid meet">
<metadata>
Created by potrace 1.10, written by Peter Selinger 2001-2011
</metadata>
<g transform="translate(0.000000,91.000000) scale(0.100000,-0.100000)"
fill="#000000" stroke="none">
<path d="M2240 834 c-19 -14 -63 -41 -98 -61 l-63 -35 3 -155 3 -154 -30 -8
c-16 -4 -33 -6 -37 -4 -4 2 -4 41 -1 86 6 93 5 96 -63 115 -40 12 -44 11 -95
-23 -30 -19 -57 -35 -61 -35 -5 0 -8 -14 -8 -30 0 -29 -2 -31 -32 -25 -27 4
-44 -2 -92 -32 l-59 -38 2 -90 2 -90 -106 -29 c-58 -16 -105 -32 -105 -36 0
-4 33 -2 73 6 106 20 376 42 592 50 249 8 625 -14 890 -52 61 -8 24 11 -76 39
l-84 25 4 76 3 76 -64 30 c-54 26 -70 30 -115 24 l-53 -6 0 39 c0 38 -1 40
-62 68 -35 16 -65 31 -67 32 -2 1 -3 36 -2 77 l2 74 -75 56 c-42 31 -79 56
-83 56 -5 -1 -24 -12 -43 -26z m123 -48 l57 -39 0 -68 c0 -39 -4 -69 -10 -69
-6 0 -10 26 -10 59 0 45 -4 60 -16 65 -13 5 -14 2 -8 -11 10 -24 18 -103 9
-103 -3 0 -15 5 -26 10 -16 9 -19 22 -19 74 0 46 -4 65 -14 69 -11 5 -14 -2
-10 -29 2 -19 6 -50 8 -69 4 -27 0 -37 -14 -45 -10 -5 -21 -10 -24 -10 -3 0
-6 50 -6 110 0 87 3 109 13 103 7 -4 38 -26 70 -47z m-123 -80 c0 -79 5 -93
41 -112 l29 -15 0 -120 c0 -67 5 -129 11 -141 6 -11 8 -22 5 -25 -3 -3 -69 -7
-148 -8 -79 -2 -190 -5 -247 -7 l-103 -3 0 117 c-1 80 3 122 12 133 21 26 30
6 30 -70 0 -68 2 -76 24 -90 22 -15 30 -14 102 4 114 30 124 43 125 179 1 59
1 115 0 124 -3 26 11 45 49 73 59 41 70 35 70 -39z m306 -180 c1 0 4 -18 7
-38 4 -29 2 -38 -9 -38 -9 0 -14 11 -14 29 0 17 -5 33 -11 36 -17 11 -21 -2
-7 -24 10 -17 10 -25 0 -41 -6 -11 -12 -49 -12 -85 0 -50 -3 -65 -15 -65 -12
0 -15 22 -17 117 -2 93 -6 117 -18 121 -12 4 -13 2 -2 -9 8 -9 12 -47 12 -116
0 -100 -1 -103 -23 -103 -22 0 -22 1 -18 115 3 114 -4 145 -32 145 -7 0 -7 -4
1 -12 8 -8 12 -52 12 -130 l0 -118 -25 0 -25 0 0 154 0 155 98 -46 c53 -25 97
-46 98 -47z m-581 70 l35 -15 0 -84 c0 -85 -5 -97 -41 -97 -5 0 -9 41 -9 90 0
50 -3 90 -7 90 -5 0 -8 -44 -8 -97 0 -85 -2 -98 -17 -101 -15 -3 -18 4 -18 36
0 77 13 192 22 192 5 0 24 -7 43 -14z m-177 -208 c2 -63 -1 -98 -8 -98 -6 0
-10 33 -10 85 0 47 -3 85 -7 85 -5 0 -7 -40 -5 -90 3 -85 2 -90 -17 -90 -20 0
-21 6 -21 98 0 54 3 102 7 106 4 4 19 6 33 4 25 -3 25 -4 28 -100z m946 36
l46 -26 0 -69 c0 -66 -1 -69 -24 -69 -14 0 -27 4 -30 9 -3 5 -15 7 -26 4 -19
-5 -20 0 -20 86 0 50 2 91 4 91 2 0 24 -12 50 -26z m-1048 -85 c2 -70 0 -80
-14 -77 -14 3 -18 17 -20 72 -2 42 2 73 9 82 18 22 23 10 25 -77z m954 5 l0
-76 -56 5 c-30 3 -58 7 -60 10 -3 2 0 16 6 31 5 15 10 42 10 60 0 42 5 46 57
46 l43 0 0 -76z"/>
<path d="M1970 518 c0 -29 5 -60 10 -68 7 -11 10 3 10 47 0 34 -4 65 -10 68
-6 4 -10 -14 -10 -47z"/>
<path d="M2708 363 c5 -76 10 -83 11 -15 0 34 -2 62 -7 62 -4 0 -6 -21 -4 -47z"/>
<path d="M2750 341 c0 -28 5 -51 10 -51 6 0 10 20 10 44 0 25 -4 48 -10 51 -6
4 -10 -13 -10 -44z"/>
<path d="M200 350 l0 -90 55 0 c30 0 55 5 55 10 0 6 -18 10 -40 10 l-40 0 0
80 c0 64 -3 80 -15 80 -12 0 -15 -17 -15 -90z"/>
<path d="M720 350 c0 -73 3 -90 15 -90 12 0 15 17 15 90 0 73 -3 90 -15 90
-12 0 -15 -17 -15 -90z"/>
<path d="M797 434 c-4 -4 -7 -45 -7 -91 0 -67 3 -83 15 -83 12 0 15 13 16 58
0 59 2 58 31 -13 10 -27 12 -28 15 -9 4 24 -39 136 -54 141 -5 2 -12 0 -16 -3z"/>
<path d="M905 384 c-14 -32 -24 -70 -23 -84 3 -22 5 -20 17 15 22 65 33 66 29
2 -3 -49 -1 -57 15 -57 16 0 17 9 15 87 -4 107 -18 117 -53 37z"/>
<path d="M1250 350 c0 -73 3 -90 15 -90 12 0 15 17 15 90 0 73 -3 90 -15 90
-12 0 -15 -17 -15 -90z"/>
<path d="M372 391 c-33 -9 -27 -26 8 -23 29 3 30 2 30 -37 0 -22 -4 -43 -10
-46 -18 -11 -10 -22 15 -22 25 0 26 1 23 55 -3 61 -24 84 -66 73z"/>
<path d="M538 392 c-24 -5 -23 -22 2 -22 23 0 35 -36 26 -80 -5 -25 -2 -30 14
-30 17 0 20 7 20 46 0 68 -20 96 -62 86z"/>
<path d="M1032 391 c-33 -9 -27 -26 8 -23 29 3 30 2 30 -37 0 -22 -4 -43 -10
-46 -18 -11 -10 -22 15 -22 23 0 25 3 25 44 0 70 -21 96 -68 84z"/>
<path d="M1197 393 c-22 -6 -17 -27 6 -31 12 -2 17 3 17 17 0 12 -1 20 -2 20
-2 -1 -11 -3 -21 -6z"/>
<path d="M480 325 c0 -51 3 -65 15 -65 12 0 15 14 15 65 0 51 -3 65 -15 65
-12 0 -15 -14 -15 -65z"/>
<path d="M640 371 c-26 -50 -4 -111 40 -111 17 0 30 5 30 10 0 6 -9 10 -20 10
-38 0 -41 83 -2 88 33 5 27 22 -8 22 -19 0 -33 -7 -40 -19z"/>
<path d="M1142 323 c4 -86 22 -85 26 2 2 54 0 65 -13 65 -13 0 -15 -11 -13
-67z"/>
<path d="M1306 365 c-9 -13 -16 -33 -16 -43 0 -21 43 -72 60 -72 16 0 12 9
-15 42 -30 36 -31 40 -5 63 23 21 26 35 6 35 -7 0 -21 -11 -30 -25z"/>
<path d="M345 324 c-9 -9 -15 -23 -13 -32 4 -19 35 -39 45 -28 4 5 2 11 -4 13
-20 7 -15 29 10 46 l22 16 -22 0 c-12 1 -29 -6 -38 -15z"/>
<path d="M1006 321 c-14 -15 -15 -24 -6 -40 11 -21 40 -29 40 -11 0 6 -4 10
-10 10 -18 0 -10 27 13 43 22 16 22 16 1 16 -11 1 -29 -8 -38 -18z"/>
</g>
</svg>
